<svg width="1920" height="437" viewBox="0 0 1920 437" fill="none" xmlns="http://www.w3.org/2000/svg">
<rect width="1920" height="437" fill="#252525"/>
<path d="M677.2 237.75C677.9 237.35 678.55 236.55 679.15 235.35C679.85 234.25 680.5 233.05 681.1 231.75C681.7 230.35 682.25 228.95 682.75 227.55C683.25 226.15 683.65 225 683.95 224.1C686.85 216.6 689.45 209.3 691.75 202.2C694.15 195 696.85 187.55 699.85 179.85C700.35 178.55 701.2 176.4 702.4 173.4C703.7 170.4 705.2 167.1 706.9 163.5C708.6 159.8 710.45 156 712.45 152.1C714.55 148.1 716.65 144.5 718.75 141.3C720.85 138.1 722.9 135.45 724.9 133.35C727 131.25 728.95 130.2 730.75 130.2C732.75 130.2 734.25 131.05 735.25 132.75C736.25 134.35 736.95 136.4 737.35 138.9C737.75 141.4 737.9 144.2 737.8 147.3C737.7 150.3 737.5 153.2 737.2 156C736.9 158.8 736.55 161.3 736.15 163.5C735.85 165.7 735.65 167.25 735.55 168.15L726.25 230.1C724.55 241.3 723.3 252.15 722.5 262.65C721.7 273.15 720.7 283.85 719.5 294.75C719.3 297.45 719.2 300.4 719.2 303.6C719.2 306.8 719.2 309.8 719.2 312.6C719.2 314 718.95 315 718.45 315.6C718.05 316.2 717.6 316.5 717.1 316.5C716.5 316.5 715.9 316.15 715.3 315.45C714.8 314.75 714.5 313.8 714.4 312.6C714.3 311.3 714.25 310.3 714.25 309.6C714.25 309 714.2 308.25 714.1 307.35L718.6 240.45C719.2 235.75 719.75 231.35 720.25 227.25C720.75 223.05 721.25 218.95 721.75 214.95C722.35 210.85 722.95 206.7 723.55 202.5C724.15 198.2 724.85 193.6 725.65 188.7C725.95 186.6 726.55 183 727.45 177.9C728.35 172.8 729.2 167.45 730 161.85C730.8 156.15 731.35 150.85 731.65 145.95C731.95 140.95 731.65 137.5 730.75 135.6C728.75 136.6 726.95 138.2 725.35 140.4C723.75 142.5 722.4 144.55 721.3 146.55C719.8 149.05 718.45 151.35 717.25 153.45C716.05 155.55 714.95 157.65 713.95 159.75C712.95 161.85 711.95 164 710.95 166.2C709.95 168.4 708.85 170.85 707.65 173.55C705.15 179.05 703.15 184.05 701.65 188.55C700.15 193.05 698.4 197.8 696.4 202.8C696 203.9 695.4 205.7 694.6 208.2C693.9 210.6 693.05 213.3 692.05 216.3C691.05 219.3 689.95 222.4 688.75 225.6C687.65 228.8 686.45 231.7 685.15 234.3C683.85 237 682.5 239.2 681.1 240.9C679.8 242.6 678.5 243.45 677.2 243.45C675.6 243.45 674.35 242.55 673.45 240.75C672.65 238.95 672.05 236.8 671.65 234.3C671.25 231.8 671.05 229.25 671.05 226.65C671.05 223.95 671.1 221.8 671.2 220.2L673.45 190.2C673.45 189.6 673.4 188.95 673.3 188.25C673.2 187.45 673.15 186.5 673.15 185.4C672.25 185.6 671.7 185.85 671.5 186.15C671.3 186.45 670.95 186.95 670.45 187.65C668.35 190.45 666.35 193.9 664.45 198C662.65 202.1 660.95 206.4 659.35 210.9C657.85 215.3 656.45 219.7 655.15 224.1C653.95 228.4 652.95 232.15 652.15 235.35C650.95 240.15 649.75 244.9 648.55 249.6C647.45 254.4 646.25 259.05 644.95 263.55C644.15 267.05 643.2 270.4 642.1 273.6C641 276.9 639.75 280.2 638.35 283.5C637.65 284.7 636.95 285.65 636.25 286.35C635.65 287.05 634.6 287.4 633.1 287.4C631.7 287.4 630.45 286.45 629.35 284.55C628.35 282.75 627.5 280.35 626.8 277.35C626.1 274.45 625.5 271.2 625 267.6C624.6 264 624.25 260.45 623.95 256.95C623.75 253.55 623.6 250.35 623.5 247.35C623.5 244.45 623.5 242.2 623.5 240.6L625 210.3C625.5 205.5 626.05 200.85 626.65 196.35C627.25 191.75 627.9 187.1 628.6 182.4C628.7 181.9 628.95 180.35 629.35 177.75C629.85 175.15 630.45 172.05 631.15 168.45C631.85 164.75 632.65 160.9 633.55 156.9C634.45 152.8 635.4 149.05 636.4 145.65C637.4 142.15 638.4 139.25 639.4 136.95C640.5 134.65 641.55 133.5 642.55 133.5C643.65 133.5 644.35 133.8 644.65 134.4C644.95 135 645.05 135.75 644.95 136.65C644.85 137.55 644.6 138.5 644.2 139.5C643.9 140.4 643.65 141.25 643.45 142.05C642.25 146.35 641.2 150.3 640.3 153.9C639.5 157.5 638.75 161.1 638.05 164.7C637.35 168.2 636.7 171.85 636.1 175.65C635.5 179.35 634.85 183.45 634.15 187.95C633.35 193.45 632.55 199.9 631.75 207.3C631.05 214.7 630.5 222.35 630.1 230.25C629.8 238.05 629.7 245.8 629.8 253.5C630 261.2 630.6 268.1 631.6 274.2L633.1 281.55C633.9 281.35 634.4 281 634.6 280.5C634.8 280.1 635.1 279.5 635.5 278.7L639.1 267.9C640.8 261.8 642.45 255.45 644.05 248.85C645.75 242.35 647.5 235.85 649.3 229.35C651.1 222.85 653.05 216.55 655.15 210.45C657.25 204.25 659.65 198.45 662.35 193.05C663.35 191.15 664.5 189 665.8 186.6C667.2 184.2 668.7 182.45 670.3 181.35C671.2 180.75 672.2 180.45 673.3 180.45C675 180.45 676.15 181.15 676.75 182.55C677.55 183.95 678 186.55 678.1 190.35C678.2 194.05 678.1 198.15 677.8 202.65C677.6 207.15 677.3 211.6 676.9 216C676.6 220.3 676.45 223.75 676.45 226.35C676.45 229.35 676.55 231.6 676.75 233.1C677.05 234.6 677.2 236.15 677.2 237.75ZM743.597 206.85C744.497 206.35 745.497 205.75 746.597 205.05C747.797 204.35 748.897 203.6 749.897 202.8C750.897 201.9 751.747 200.95 752.447 199.95C753.147 198.85 753.547 197.7 753.647 196.5C752.647 196.7 751.597 197.2 750.497 198C749.397 198.7 748.397 199.55 747.497 200.55C746.597 201.55 745.797 202.65 745.097 203.85C744.397 204.95 743.897 205.95 743.597 206.85ZM736.847 210.45C736.847 208.55 737.347 206.55 738.347 204.45C739.347 202.25 740.597 200.25 742.097 198.45C743.597 196.55 745.297 195 747.197 193.8C749.097 192.5 750.947 191.85 752.747 191.85C756.047 191.85 757.747 193.1 757.847 195.6C758.047 198.1 756.997 200.8 754.697 203.7C753.497 205.1 751.697 206.65 749.297 208.35C746.897 209.95 744.547 210.85 742.247 211.05C742.247 212.65 742.297 214.1 742.397 215.4C742.497 216.6 743.197 217.85 744.497 219.15C745.797 220.45 747.447 221.1 749.447 221.1C750.747 221.1 752.097 220.85 753.497 220.35C754.897 219.85 756.247 219.3 757.547 218.7C758.847 218 760.047 217.3 761.147 216.6C762.347 215.8 763.297 215.1 763.997 214.5C764.597 214 765.047 213.6 765.347 213.3C765.747 213 766.197 212.65 766.697 212.25C768.197 211.05 769.247 210.1 769.847 209.4C770.547 208.7 771.047 208.15 771.347 207.75C771.747 207.35 772.147 207.1 772.547 207C773.047 206.9 773.847 206.85 774.947 206.85C775.147 207.95 775.197 208.7 775.097 209.1C775.097 209.5 774.747 210.1 774.047 210.9C772.647 212.3 770.997 213.85 769.097 215.55C767.197 217.25 765.097 218.85 762.797 220.35C760.597 221.85 758.297 223.1 755.897 224.1C753.597 225.1 751.297 225.6 748.997 225.6C745.597 225.6 742.697 224.4 740.297 222C738.497 220.2 737.447 218.35 737.147 216.45C736.947 214.55 736.847 212.55 736.847 210.45ZM776.117 206.85C777.017 206.35 778.017 205.75 779.117 205.05C780.317 204.35 781.417 203.6 782.417 202.8C783.417 201.9 784.267 200.95 784.967 199.95C785.667 198.85 786.067 197.7 786.167 196.5C785.167 196.7 784.117 197.2 783.017 198C781.917 198.7 780.917 199.55 780.017 200.55C779.117 201.55 778.317 202.65 777.617 203.85C776.917 204.95 776.417 205.95 776.117 206.85ZM769.367 210.45C769.367 208.55 769.867 206.55 770.867 204.45C771.867 202.25 773.117 200.25 774.617 198.45C776.117 196.55 777.817 195 779.717 193.8C781.617 192.5 783.467 191.85 785.267 191.85C788.567 191.85 790.267 193.1 790.367 195.6C790.567 198.1 789.517 200.8 787.217 203.7C786.017 205.1 784.217 206.65 781.817 208.35C779.417 209.95 777.067 210.85 774.767 211.05C774.767 212.65 774.817 214.1 774.917 215.4C775.017 216.6 775.717 217.85 777.017 219.15C778.317 220.45 779.967 221.1 781.967 221.1C783.267 221.1 784.617 220.85 786.017 220.35C787.417 219.85 788.767 219.3 790.067 218.7C791.367 218 792.567 217.3 793.667 216.6C794.867 215.8 795.817 215.1 796.517 214.5C797.117 214 797.567 213.6 797.867 213.3C798.267 213 798.717 212.65 799.217 212.25C800.717 211.05 801.767 210.1 802.367 209.4C803.067 208.7 803.567 208.15 803.867 207.75C804.267 207.35 804.667 207.1 805.067 207C805.567 206.9 806.367 206.85 807.467 206.85C807.667 207.95 807.717 208.7 807.617 209.1C807.617 209.5 807.267 210.1 806.567 210.9C805.167 212.3 803.517 213.85 801.617 215.55C799.717 217.25 797.617 218.85 795.317 220.35C793.117 221.85 790.817 223.1 788.417 224.1C786.117 225.1 783.817 225.6 781.517 225.6C778.117 225.6 775.217 224.4 772.817 222C771.017 220.2 769.967 218.35 769.667 216.45C769.467 214.55 769.367 212.55 769.367 210.45ZM759.586 167.1C759.586 166 760.486 164.85 762.286 163.65C763.986 162.45 766.186 161.25 768.886 160.05C771.586 158.85 774.586 157.7 777.886 156.6C781.186 155.5 784.436 154.5 787.636 153.6C790.836 152.6 793.786 151.75 796.486 151.05C799.186 150.35 801.236 149.8 802.636 149.4C804.236 149 805.436 148.75 806.236 148.65C807.036 148.45 807.636 148.25 808.036 148.05C808.436 147.75 808.686 147.35 808.786 146.85C808.986 146.25 809.236 145.3 809.536 144C810.336 139.9 811.236 137.1 812.236 135.6C813.336 134 814.386 133.2 815.386 133.2C816.186 133.2 816.836 133.65 817.336 134.55C817.936 135.35 818.236 136.35 818.236 137.55C818.236 138.45 818.186 138.85 818.086 138.75C817.986 138.55 817.986 138.85 818.086 139.65C818.086 139.85 818.086 140.1 818.086 140.4C818.186 140.7 818.236 141.1 818.236 141.6C818.236 142.6 818.086 143.2 817.786 143.4C817.486 143.5 817.136 143.6 816.736 143.7C816.336 143.7 815.986 143.85 815.686 144.15C815.386 144.45 815.236 145.2 815.236 146.4C816.436 146.4 817.736 146.25 819.136 145.95C820.636 145.65 821.936 145.4 823.036 145.2C827.436 144.4 831.836 143.7 836.236 143.1C840.636 142.4 845.136 142.05 849.736 142.05C851.536 142.05 852.936 142.35 853.936 142.95C855.036 143.55 855.736 144.25 856.036 145.05C856.336 145.75 856.236 146.45 855.736 147.15C855.236 147.75 854.286 148.05 852.886 148.05C852.686 147.25 852.536 146.9 852.436 147C852.436 147 851.986 146.9 851.086 146.7C850.686 146.6 849.886 146.55 848.686 146.55C846.586 146.55 843.786 146.8 840.286 147.3C836.786 147.7 833.236 148.2 829.636 148.8C826.036 149.4 822.736 150 819.736 150.6C816.836 151.1 814.936 151.45 814.036 151.65L811.036 182.4C810.936 183.1 810.886 183.85 810.886 184.65C810.986 185.45 811.036 186.25 811.036 187.05C811.036 188.05 810.936 188.7 810.736 189C810.636 189.3 810.586 190 810.586 191.1C810.586 193.3 810.636 195.85 810.736 198.75C810.836 201.55 810.786 203.75 810.586 205.35C810.486 206.45 810.386 208.9 810.286 212.7C810.186 216.5 810.136 220.65 810.136 225.15C810.136 229.55 810.136 233.8 810.136 237.9C810.136 242 810.186 244.85 810.286 246.45C810.286 247.35 810.386 248.55 810.586 250.05C810.786 251.65 810.886 253.2 810.886 254.7C810.986 256.2 810.886 257.5 810.586 258.6C810.286 259.7 809.636 260.25 808.636 260.25C807.636 260.25 806.836 259.95 806.236 259.35C805.736 258.75 805.336 258 805.036 257.1C804.836 256.2 804.686 255.2 804.586 254.1C804.586 253.1 804.586 252.15 804.586 251.25C804.386 248.55 804.236 245.45 804.136 241.95C804.036 238.55 803.986 235.05 803.986 231.45C803.986 227.85 803.986 224.35 803.986 220.95C804.086 217.45 804.136 214.35 804.136 211.65L804.586 204.6C804.586 203.2 804.586 201.05 804.586 198.15C804.586 195.15 804.636 192.1 804.736 189C804.836 185.8 804.936 182.85 805.036 180.15C805.136 177.35 805.286 175.4 805.486 174.3C805.686 173.3 805.786 172.1 805.786 170.7C805.886 169.3 805.986 168.1 806.086 167.1L807.436 153.15C806.936 153.35 806.036 153.6 804.736 153.9C803.436 154.1 802.386 154.3 801.586 154.5C796.586 155.7 791.886 157 787.486 158.4C783.086 159.7 778.536 161.25 773.836 163.05C772.936 163.45 772.136 163.9 771.436 164.4C770.636 164.8 769.786 165.2 768.886 165.6C767.986 166 767.336 166.3 766.936 166.5C766.536 166.6 766.286 166.75 766.186 166.95C766.086 167.15 765.986 167.45 765.886 167.85C765.786 168.15 765.586 168.65 765.286 169.35C764.286 169.55 763.436 169.65 762.736 169.65C761.936 169.65 761.236 169.5 760.636 169.2C759.936 168.9 759.586 168.2 759.586 167.1ZM831.618 234.6C829.618 234.6 827.818 233.95 826.218 232.65C824.718 231.35 823.568 230 822.768 228.6C820.968 225.2 819.918 221.2 819.618 216.6C819.418 211.9 819.718 207.65 820.518 203.85C820.618 203.05 820.768 202.1 820.968 201C821.268 199.9 821.618 198.85 822.018 197.85C822.418 196.75 822.918 195.85 823.518 195.15C824.118 194.35 824.768 193.95 825.468 193.95C827.168 193.95 828.168 194.4 828.468 195.3C828.768 196.1 828.768 197.4 828.468 199.2C828.168 201 827.718 203.3 827.118 206.1C826.618 208.9 826.368 212.2 826.368 216C826.368 217.1 826.468 218.45 826.668 220.05C826.868 221.55 827.168 223 827.568 224.4C828.068 225.8 828.668 227 829.368 228C830.168 228.9 831.068 229.35 832.068 229.35C833.268 229.35 834.618 228.95 836.118 228.15C837.618 227.25 839.068 226.2 840.468 225C841.868 223.8 843.118 222.6 844.218 221.4C845.418 220.2 846.318 219.25 846.918 218.55C847.118 218.35 847.668 217.65 848.568 216.45C849.468 215.25 850.518 213.95 851.718 212.55C852.918 211.15 854.118 209.9 855.318 208.8C856.618 207.7 857.618 207.15 858.318 207.15C859.018 207.15 859.368 207.75 859.368 208.95C859.368 209.65 858.868 210.75 857.868 212.25C856.968 213.65 855.868 215.15 854.568 216.75C853.268 218.35 851.968 219.85 850.668 221.25C849.468 222.65 848.568 223.65 847.968 224.25C847.068 225.15 846.018 226.2 844.818 227.4C843.718 228.6 842.468 229.75 841.068 230.85C839.668 231.85 838.168 232.75 836.568 233.55C835.068 234.25 833.418 234.6 831.618 234.6ZM826.818 175.05C826.818 173.35 827.268 171.9 828.168 170.7C829.068 169.4 830.068 168.75 831.168 168.75C832.368 168.75 833.368 169.5 834.168 171C835.568 173.8 835.718 176 834.618 177.6C833.618 179.1 832.368 179.85 830.868 179.85C829.768 179.85 828.818 179.5 828.018 178.8C827.218 178 826.818 176.75 826.818 175.05ZM857.499 226.2C855.899 226.2 854.799 225.35 854.199 223.65C853.599 221.95 853.299 219.85 853.299 217.35C853.399 214.75 853.749 211.95 854.349 208.95C855.049 205.95 855.849 203.2 856.749 200.7C857.749 198.1 858.799 195.95 859.899 194.25C860.999 192.55 861.999 191.7 862.899 191.7C864.599 191.7 865.349 192.5 865.149 194.1C865.049 195.7 864.599 197.75 863.799 200.25C862.999 202.75 862.099 205.55 861.099 208.65C860.199 211.65 859.749 214.6 859.749 217.5L866.949 206.55C867.149 206.15 867.549 205.45 868.149 204.45C868.849 203.35 869.599 202.3 870.399 201.3C871.299 200.2 872.199 199.25 873.099 198.45C874.099 197.65 875.049 197.25 875.949 197.25C877.149 197.25 878.099 198.05 878.799 199.65L879.699 208.05C879.699 208.95 879.749 210.35 879.849 212.25C879.949 214.15 880.149 216.05 880.449 217.95C880.849 219.85 881.449 221.55 882.249 223.05C883.049 224.45 884.149 225.15 885.549 225.15C887.049 225.15 888.599 224.25 890.199 222.45C891.899 220.55 893.499 218.5 894.999 216.3C896.599 214 897.999 211.95 899.199 210.15C900.499 208.25 901.499 207.3 902.199 207.3C903.699 207.3 904.349 207.9 904.149 209.1C904.049 210.2 903.599 211.5 902.799 213C901.999 214.5 901.099 215.9 900.099 217.2C899.099 218.5 898.499 219.3 898.299 219.6C897.799 220.3 897.099 221.15 896.199 222.15C895.399 223.15 894.499 224.15 893.499 225.15C892.599 226.05 891.649 226.9 890.649 227.7C889.749 228.5 888.849 229 887.949 229.2C886.949 229.5 885.999 229.65 885.099 229.65C882.799 229.65 880.949 228.8 879.549 227.1C878.249 225.4 877.249 223.55 876.549 221.55C875.849 219.25 875.349 217.2 875.049 215.4C874.849 213.5 874.749 211.8 874.749 210.3C874.749 208.8 874.749 207.5 874.749 206.4C874.749 205.3 874.599 204.4 874.299 203.7C873.099 204.5 871.799 206.15 870.399 208.65C869.099 211.05 867.699 213.55 866.199 216.15C864.799 218.75 863.349 221.1 861.849 223.2C860.449 225.2 858.999 226.2 857.499 226.2ZM898.27 289.35C900.27 289.35 902.27 288.35 904.27 286.35C906.27 284.35 907.82 282.5 908.92 280.8C910.62 277.9 911.97 274.85 912.97 271.65C914.07 268.55 914.92 265.35 915.52 262.05C916.12 258.85 916.57 255.65 916.87 252.45C917.27 249.25 917.67 246.1 918.07 243L918.67 234.3C918.17 234.5 917.47 235 916.57 235.8C915.77 236.7 914.92 237.65 914.02 238.65C913.12 239.75 912.27 240.8 911.47 241.8C910.77 242.9 910.27 243.65 909.97 244.05C909.17 245.15 908.17 246.5 906.97 248.1C905.77 249.7 904.57 251.4 903.37 253.2C902.17 255.1 901.02 256.95 899.92 258.75C898.82 260.55 897.97 262.15 897.37 263.55C896.97 264.55 896.22 266.45 895.12 269.25C894.02 272.05 893.22 274.95 892.72 277.95C892.22 280.95 892.27 283.6 892.87 285.9C893.47 288.2 895.27 289.35 898.27 289.35ZM896.62 221.25C896.62 218.85 897.37 216 898.87 212.7C900.37 209.3 902.27 206.1 904.57 203.1C906.87 200.1 909.42 197.55 912.22 195.45C915.02 193.35 917.77 192.3 920.47 192.3C923.27 192.3 925.22 193.3 926.32 195.3C927.52 197.3 927.47 199.3 926.17 201.3C925.27 201.2 924.62 200.9 924.22 200.4C923.82 199.9 923.47 199.35 923.17 198.75C922.87 198.15 922.52 197.6 922.12 197.1C921.72 196.6 921.12 196.35 920.32 196.35C918.22 196.35 916.02 197.4 913.72 199.5C911.42 201.5 909.27 203.95 907.27 206.85C905.37 209.75 903.77 212.75 902.47 215.85C901.27 218.95 900.67 221.55 900.67 223.65C902.47 223.15 904.07 222.15 905.47 220.65C906.87 219.05 908.07 217.75 909.07 216.75C910.07 215.65 911.17 214.25 912.37 212.55C913.67 210.85 914.77 209.35 915.67 208.05C916.17 207.25 916.82 206.25 917.62 205.05C918.42 203.85 919.42 203.25 920.62 203.25C921.72 203.25 922.57 203.95 923.17 205.35C923.77 206.65 924.17 208.25 924.37 210.15C924.57 211.95 924.67 213.85 924.67 215.85C924.67 217.85 924.67 219.5 924.67 220.8C925.47 220.6 926.72 219.85 928.42 218.55C930.12 217.15 931.92 215.65 933.82 214.05C935.82 212.45 937.77 211.05 939.67 209.85C941.67 208.55 943.32 207.9 944.62 207.9C945.22 207.9 945.62 208.25 945.82 208.95C946.02 209.55 945.97 210.15 945.67 210.75C945.57 210.85 944.82 211.45 943.42 212.55C942.12 213.55 940.57 214.75 938.77 216.15C936.97 217.45 935.17 218.8 933.37 220.2C931.57 221.6 930.22 222.75 929.32 223.65C928.52 224.35 927.67 224.95 926.77 225.45C925.87 225.95 925.32 226.85 925.12 228.15C924.82 230.95 924.67 233.6 924.67 236.1C924.67 239.1 924.42 242.5 923.92 246.3C923.52 250.2 922.92 254.1 922.12 258C921.32 261.9 920.37 265.6 919.27 269.1C918.27 272.6 917.17 275.55 915.97 277.95C913.07 283.65 910.02 287.65 906.82 289.95C903.72 292.35 900.87 293.55 898.27 293.55C895.47 293.55 893.17 292.5 891.37 290.4C889.57 288.4 888.67 285.9 888.67 282.9C888.67 280.5 888.77 278.35 888.97 276.45C889.17 274.65 889.52 272.9 890.02 271.2C890.52 269.6 891.12 267.95 891.82 266.25C892.52 264.55 893.42 262.65 894.52 260.55C897.52 254.45 900.87 248.9 904.57 243.9C908.37 238.9 912.57 233.95 917.17 229.05C918.47 227.65 919.02 225.35 918.82 222.15C918.72 218.85 918.67 215.65 918.67 212.55C917.87 212.85 916.72 214.1 915.22 216.3C913.82 218.4 912.27 220.2 910.57 221.7C909.47 222.8 908.02 224.15 906.22 225.75C904.42 227.35 902.57 228.15 900.67 228.15C899.57 228.15 898.72 227.9 898.12 227.4C897.52 226.9 897.12 226.3 896.92 225.6C896.72 224.9 896.62 224.15 896.62 223.35C896.62 222.55 896.62 221.85 896.62 221.25ZM977.482 243.75C977.482 236.65 977.982 229.6 978.982 222.6C979.882 215.6 981.082 208.85 982.582 202.35C984.082 195.75 985.782 189.45 987.682 183.45C989.682 177.35 991.682 171.75 993.682 166.65C995.082 163.05 996.732 159.25 998.632 155.25C1000.53 151.25 1002.63 147.35 1004.93 143.55C1007.23 139.75 1009.73 136.15 1012.43 132.75C1015.13 129.35 1017.98 126.45 1020.98 124.05C1023.78 121.85 1026.83 120 1030.13 118.5C1033.53 117 1036.83 116.25 1040.03 116.25C1042.43 116.25 1044.73 116.8 1046.93 117.9C1049.13 118.9 1051.08 120.55 1052.78 122.85C1055.08 126.15 1056.33 129.3 1056.53 132.3C1056.83 135.2 1056.98 138.55 1056.98 142.35C1056.98 145.65 1056.43 149.4 1055.33 153.6C1054.33 157.8 1053.03 162.05 1051.43 166.35C1049.93 170.65 1048.28 174.85 1046.48 178.95C1044.68 183.05 1043.03 186.6 1041.53 189.6C1041.03 190.8 1040.58 191.75 1040.18 192.45C1039.78 193.05 1038.83 193.5 1037.33 193.8C1036.03 192.9 1035.38 192.1 1035.38 191.4C1035.38 190.7 1035.78 189.65 1036.58 188.25C1036.98 187.15 1037.38 186.15 1037.78 185.25C1038.18 184.35 1038.58 183.4 1038.98 182.4C1041.98 175.5 1044.73 168.45 1047.23 161.25C1049.83 153.95 1051.13 146.25 1051.13 138.15C1051.13 133.05 1050.08 129.35 1047.98 127.05C1045.88 124.65 1043.28 123.45 1040.18 123.45C1036.98 123.45 1033.88 124.35 1030.88 126.15C1027.88 127.95 1025.03 130.3 1022.33 133.2C1019.73 136.1 1017.28 139.4 1014.98 143.1C1012.78 146.8 1010.73 150.5 1008.83 154.2C1006.93 157.9 1005.23 161.5 1003.73 165C1002.33 168.4 1001.13 171.3 1000.13 173.7C998.132 178.8 996.282 184.35 994.582 190.35C992.882 196.25 991.432 202.2 990.232 208.2C989.232 213.2 988.282 218.55 987.382 224.25C986.482 229.95 985.882 235.75 985.582 241.65C985.282 247.55 985.432 253.35 986.032 259.05C986.632 264.85 987.882 270.25 989.782 275.25C991.182 279.55 993.332 283.25 996.232 286.35C999.132 289.45 1002.98 291 1007.78 291C1012.08 291 1016.28 289.85 1020.38 287.55C1024.48 285.35 1028.03 283.1 1031.03 280.8L1036.13 276.3C1037.13 275.4 1038.03 274.65 1038.83 274.05C1039.63 273.45 1040.53 272.65 1041.53 271.65C1049.73 263.25 1056.78 253.8 1062.68 243.3C1068.68 232.9 1074.43 222.45 1079.93 211.95C1080.83 210.25 1081.68 209.1 1082.48 208.5C1083.38 207.8 1084.18 207.45 1084.88 207.45C1085.58 207.45 1086.13 207.7 1086.53 208.2C1086.93 208.7 1087.13 209.2 1087.13 209.7L1064.78 250.5C1063.38 252.6 1061.98 254.65 1060.58 256.65C1059.28 258.65 1057.88 260.65 1056.38 262.65C1054.28 265.55 1051.43 268.95 1047.83 272.85C1044.23 276.85 1040.23 280.65 1035.83 284.25C1031.43 287.85 1026.78 290.9 1021.88 293.4C1017.08 295.9 1012.33 297.15 1007.63 297.15C1001.33 297.15 996.182 295.25 992.182 291.45C988.282 287.65 985.232 283 983.032 277.5C980.932 272 979.482 266.15 978.682 259.95C977.882 253.85 977.482 248.45 977.482 243.75ZM1083.18 233.4C1082.48 233.4 1081.98 233 1081.68 232.2C1081.38 231.4 1081.18 230.55 1081.08 229.65C1081.08 228.65 1081.13 227.7 1081.23 226.8C1081.33 225.9 1081.38 225.3 1081.38 225C1081.28 223.2 1081.23 221.4 1081.23 219.6C1081.33 217.7 1081.33 215.8 1081.23 213.9C1081.23 213.2 1081.23 211.85 1081.23 209.85C1081.33 207.85 1081.48 205.8 1081.68 203.7C1081.98 201.6 1082.38 199.75 1082.88 198.15C1083.38 196.45 1084.03 195.6 1084.83 195.6C1086.83 195.6 1087.83 196.25 1087.83 197.55C1087.93 198.85 1087.88 200.55 1087.68 202.65C1087.58 203.45 1087.53 204.25 1087.53 205.05C1087.53 205.85 1087.53 206.65 1087.53 207.45C1087.53 208.55 1087.48 209.25 1087.38 209.55C1087.28 209.75 1087.23 210.35 1087.23 211.35C1088.33 210.55 1089.33 209.65 1090.23 208.65C1091.13 207.55 1092.73 207 1095.03 207C1095.73 207 1096.63 207 1097.73 207C1098.93 206.9 1100.18 206.85 1101.48 206.85C1103.68 206.85 1105.73 207 1107.63 207.3C1109.53 207.5 1110.48 208.1 1110.48 209.1C1110.48 210.2 1109.93 210.9 1108.83 211.2C1107.83 211.4 1106.58 211.5 1105.08 211.5C1104.08 211.5 1103.03 211.5 1101.93 211.5C1100.93 211.4 1100.03 211.35 1099.23 211.35C1097.83 211.35 1096.68 211.4 1095.78 211.5C1094.88 211.5 1094.13 211.65 1093.53 211.95C1092.93 212.15 1092.38 212.5 1091.88 213C1091.48 213.5 1090.98 214.25 1090.38 215.25C1089.58 216.55 1088.88 217.95 1088.28 219.45C1087.68 220.95 1087.23 222.6 1086.93 224.4C1086.73 225.4 1086.63 226.45 1086.63 227.55C1086.63 228.55 1086.58 229.5 1086.48 230.4C1086.38 231.3 1086.08 232.05 1085.58 232.65C1085.18 233.15 1084.38 233.4 1083.18 233.4ZM1112.44 206.85C1113.34 206.35 1114.34 205.75 1115.44 205.05C1116.64 204.35 1117.74 203.6 1118.74 202.8C1119.74 201.9 1120.59 200.95 1121.29 199.95C1121.99 198.85 1122.39 197.7 1122.49 196.5C1121.49 196.7 1120.44 197.2 1119.34 198C1118.24 198.7 1117.24 199.55 1116.34 200.55C1115.44 201.55 1114.64 202.65 1113.94 203.85C1113.24 204.95 1112.74 205.95 1112.44 206.85ZM1105.69 210.45C1105.69 208.55 1106.19 206.55 1107.19 204.45C1108.19 202.25 1109.44 200.25 1110.94 198.45C1112.44 196.55 1114.14 195 1116.04 193.8C1117.94 192.5 1119.79 191.85 1121.59 191.85C1124.89 191.85 1126.59 193.1 1126.69 195.6C1126.89 198.1 1125.84 200.8 1123.54 203.7C1122.34 205.1 1120.54 206.65 1118.14 208.35C1115.74 209.95 1113.39 210.85 1111.09 211.05C1111.09 212.65 1111.14 214.1 1111.24 215.4C1111.34 216.6 1112.04 217.85 1113.34 219.15C1114.64 220.45 1116.29 221.1 1118.29 221.1C1119.59 221.1 1120.94 220.85 1122.34 220.35C1123.74 219.85 1125.09 219.3 1126.39 218.7C1127.69 218 1128.89 217.3 1129.99 216.6C1131.19 215.8 1132.14 215.1 1132.84 214.5C1133.44 214 1133.89 213.6 1134.19 213.3C1134.59 213 1135.04 212.65 1135.54 212.25C1137.04 211.05 1138.09 210.1 1138.69 209.4C1139.39 208.7 1139.89 208.15 1140.19 207.75C1140.59 207.35 1140.99 207.1 1141.39 207C1141.89 206.9 1142.69 206.85 1143.79 206.85C1143.99 207.95 1144.04 208.7 1143.94 209.1C1143.94 209.5 1143.59 210.1 1142.89 210.9C1141.49 212.3 1139.84 213.85 1137.94 215.55C1136.04 217.25 1133.94 218.85 1131.64 220.35C1129.44 221.85 1127.14 223.1 1124.74 224.1C1122.44 225.1 1120.14 225.6 1117.84 225.6C1114.44 225.6 1111.54 224.4 1109.14 222C1107.34 220.2 1106.29 218.35 1105.99 216.45C1105.79 214.55 1105.69 212.55 1105.69 210.45ZM1138.06 218.85C1138.06 216.75 1138.56 214.15 1139.56 211.05C1140.66 207.85 1142.06 204.8 1143.76 201.9C1145.56 198.9 1147.61 196.4 1149.91 194.4C1152.31 192.3 1154.81 191.25 1157.41 191.25C1159.21 191.25 1160.76 191.7 1162.06 192.6C1163.36 193.5 1164.36 194.5 1165.06 195.6C1165.76 196.6 1166.06 197.55 1165.96 198.45C1165.96 199.35 1165.46 199.8 1164.46 199.8C1163.36 199.8 1162.31 199.25 1161.31 198.15C1160.31 196.95 1159.11 196.35 1157.71 196.35C1156.61 196.35 1155.26 197 1153.66 198.3C1152.16 199.6 1150.31 202.15 1148.11 205.95C1147.11 207.55 1146.16 209.65 1145.26 212.25C1144.46 214.75 1144.06 217.25 1144.06 219.75C1144.26 219.55 1144.31 219.5 1144.21 219.6C1144.21 219.7 1144.41 219.5 1144.81 219L1146.01 217.2C1146.81 216 1147.71 214.45 1148.71 212.55C1149.81 210.55 1150.86 208.65 1151.86 206.85C1152.96 204.95 1153.96 203.3 1154.86 201.9C1155.86 200.5 1156.61 199.8 1157.11 199.8C1158.41 199.8 1159.26 200.2 1159.66 201C1160.16 201.7 1160.46 202.65 1160.56 203.85C1160.66 205.05 1160.71 206.4 1160.71 207.9C1160.71 209.4 1160.86 210.85 1161.16 212.25C1161.76 214.95 1162.66 216.95 1163.86 218.25C1165.16 219.45 1166.61 220.05 1168.21 220.05C1171.01 220.05 1174.11 218.35 1177.51 214.95C1178.91 213.65 1179.86 212.6 1180.36 211.8C1180.96 210.9 1181.81 209.9 1182.91 208.8C1183.61 207.8 1184.51 207.3 1185.61 207.3C1186.21 207.3 1186.66 207.55 1186.96 208.05C1187.26 208.45 1187.31 209.15 1187.11 210.15C1186.91 211.05 1186.31 212.2 1185.31 213.6C1184.41 215 1183.01 216.6 1181.11 218.4L1176.61 222C1173.71 224 1170.91 225 1168.21 225C1166.31 225 1164.61 224.55 1163.11 223.65C1161.61 222.75 1160.31 221.65 1159.21 220.35C1158.21 218.95 1157.41 217.4 1156.81 215.7C1156.21 214 1155.91 212.35 1155.91 210.75C1155.21 211.25 1154.41 212.4 1153.51 214.2C1152.61 215.9 1151.61 217.7 1150.51 219.6C1149.51 221.4 1148.46 223.05 1147.36 224.55C1146.26 226.05 1145.16 226.8 1144.06 226.8C1141.26 226.8 1139.56 226.15 1138.96 224.85C1138.36 223.55 1138.06 221.55 1138.06 218.85ZM1139.42 167.1C1139.42 166 1140.32 164.85 1142.12 163.65C1143.82 162.45 1146.02 161.25 1148.72 160.05C1151.42 158.85 1154.42 157.7 1157.72 156.6C1161.02 155.5 1164.27 154.5 1167.47 153.6C1170.67 152.6 1173.62 151.75 1176.32 151.05C1179.02 150.35 1181.07 149.8 1182.47 149.4C1184.07 149 1185.27 148.75 1186.07 148.65C1186.87 148.45 1187.47 148.25 1187.87 148.05C1188.27 147.75 1188.52 147.35 1188.62 146.85C1188.82 146.25 1189.07 145.3 1189.37 144C1190.17 139.9 1191.07 137.1 1192.07 135.6C1193.17 134 1194.22 133.2 1195.22 133.2C1196.02 133.2 1196.67 133.65 1197.17 134.55C1197.77 135.35 1198.07 136.35 1198.07 137.55C1198.07 138.45 1198.02 138.85 1197.92 138.75C1197.82 138.55 1197.82 138.85 1197.92 139.65C1197.92 139.85 1197.92 140.1 1197.92 140.4C1198.02 140.7 1198.07 141.1 1198.07 141.6C1198.07 142.6 1197.92 143.2 1197.62 143.4C1197.32 143.5 1196.97 143.6 1196.57 143.7C1196.17 143.7 1195.82 143.85 1195.52 144.15C1195.22 144.45 1195.07 145.2 1195.07 146.4C1196.27 146.4 1197.57 146.25 1198.97 145.95C1200.47 145.65 1201.77 145.4 1202.87 145.2C1207.27 144.4 1211.67 143.7 1216.07 143.1C1220.47 142.4 1224.97 142.05 1229.57 142.05C1231.37 142.05 1232.77 142.35 1233.77 142.95C1234.87 143.55 1235.57 144.25 1235.87 145.05C1236.17 145.75 1236.07 146.45 1235.57 147.15C1235.07 147.75 1234.12 148.05 1232.72 148.05C1232.52 147.25 1232.37 146.9 1232.27 147C1232.27 147 1231.82 146.9 1230.92 146.7C1230.52 146.6 1229.72 146.55 1228.52 146.55C1226.42 146.55 1223.62 146.8 1220.12 147.3C1216.62 147.7 1213.07 148.2 1209.47 148.8C1205.87 149.4 1202.57 150 1199.57 150.6C1196.67 151.1 1194.77 151.45 1193.87 151.65L1190.87 182.4C1190.77 183.1 1190.72 183.85 1190.72 184.65C1190.82 185.45 1190.87 186.25 1190.87 187.05C1190.87 188.05 1190.77 188.7 1190.57 189C1190.47 189.3 1190.42 190 1190.42 191.1C1190.42 193.3 1190.47 195.85 1190.57 198.75C1190.67 201.55 1190.62 203.75 1190.42 205.35C1190.32 206.45 1190.22 208.9 1190.12 212.7C1190.02 216.5 1189.97 220.65 1189.97 225.15C1189.97 229.55 1189.97 233.8 1189.97 237.9C1189.97 242 1190.02 244.85 1190.12 246.45C1190.12 247.35 1190.22 248.55 1190.42 250.05C1190.62 251.65 1190.72 253.2 1190.72 254.7C1190.82 256.2 1190.72 257.5 1190.42 258.6C1190.12 259.7 1189.47 260.25 1188.47 260.25C1187.47 260.25 1186.67 259.95 1186.07 259.35C1185.57 258.75 1185.17 258 1184.87 257.1C1184.67 256.2 1184.52 255.2 1184.42 254.1C1184.42 253.1 1184.42 252.15 1184.42 251.25C1184.22 248.55 1184.07 245.45 1183.97 241.95C1183.87 238.55 1183.82 235.05 1183.82 231.45C1183.82 227.85 1183.82 224.35 1183.82 220.95C1183.92 217.45 1183.97 214.35 1183.97 211.65L1184.42 204.6C1184.42 203.2 1184.42 201.05 1184.42 198.15C1184.42 195.15 1184.47 192.1 1184.57 189C1184.67 185.8 1184.77 182.85 1184.87 180.15C1184.97 177.35 1185.12 175.4 1185.32 174.3C1185.52 173.3 1185.62 172.1 1185.62 170.7C1185.72 169.3 1185.82 168.1 1185.92 167.1L1187.27 153.15C1186.77 153.35 1185.87 153.6 1184.57 153.9C1183.27 154.1 1182.22 154.3 1181.42 154.5C1176.42 155.7 1171.72 157 1167.32 158.4C1162.92 159.7 1158.37 161.25 1153.67 163.05C1152.77 163.45 1151.97 163.9 1151.27 164.4C1150.47 164.8 1149.62 165.2 1148.72 165.6C1147.82 166 1147.17 166.3 1146.77 166.5C1146.37 166.6 1146.12 166.75 1146.02 166.95C1145.92 167.15 1145.82 167.45 1145.72 167.85C1145.62 168.15 1145.42 168.65 1145.12 169.35C1144.12 169.55 1143.27 169.65 1142.57 169.65C1141.77 169.65 1141.07 169.5 1140.47 169.2C1139.77 168.9 1139.42 168.2 1139.42 167.1ZM1211.45 234.6C1209.45 234.6 1207.65 233.95 1206.05 232.65C1204.55 231.35 1203.4 230 1202.6 228.6C1200.8 225.2 1199.75 221.2 1199.45 216.6C1199.25 211.9 1199.55 207.65 1200.35 203.85C1200.45 203.05 1200.6 202.1 1200.8 201C1201.1 199.9 1201.45 198.85 1201.85 197.85C1202.25 196.75 1202.75 195.85 1203.35 195.15C1203.95 194.35 1204.6 193.95 1205.3 193.95C1207 193.95 1208 194.4 1208.3 195.3C1208.6 196.1 1208.6 197.4 1208.3 199.2C1208 201 1207.55 203.3 1206.95 206.1C1206.45 208.9 1206.2 212.2 1206.2 216C1206.2 217.1 1206.3 218.45 1206.5 220.05C1206.7 221.55 1207 223 1207.4 224.4C1207.9 225.8 1208.5 227 1209.2 228C1210 228.9 1210.9 229.35 1211.9 229.35C1213.1 229.35 1214.45 228.95 1215.95 228.15C1217.45 227.25 1218.9 226.2 1220.3 225C1221.7 223.8 1222.95 222.6 1224.05 221.4C1225.25 220.2 1226.15 219.25 1226.75 218.55C1226.95 218.35 1227.5 217.65 1228.4 216.45C1229.3 215.25 1230.35 213.95 1231.55 212.55C1232.75 211.15 1233.95 209.9 1235.15 208.8C1236.45 207.7 1237.45 207.15 1238.15 207.15C1238.85 207.15 1239.2 207.75 1239.2 208.95C1239.2 209.65 1238.7 210.75 1237.7 212.25C1236.8 213.65 1235.7 215.15 1234.4 216.75C1233.1 218.35 1231.8 219.85 1230.5 221.25C1229.3 222.65 1228.4 223.65 1227.8 224.25C1226.9 225.15 1225.85 226.2 1224.65 227.4C1223.55 228.6 1222.3 229.75 1220.9 230.85C1219.5 231.85 1218 232.75 1216.4 233.55C1214.9 234.25 1213.25 234.6 1211.45 234.6ZM1206.65 175.05C1206.65 173.35 1207.1 171.9 1208 170.7C1208.9 169.4 1209.9 168.75 1211 168.75C1212.2 168.75 1213.2 169.5 1214 171C1215.4 173.8 1215.55 176 1214.45 177.6C1213.45 179.1 1212.2 179.85 1210.7 179.85C1209.6 179.85 1208.65 179.5 1207.85 178.8C1207.05 178 1206.65 176.75 1206.65 175.05ZM1233.28 217.65C1233.28 216.15 1233.43 214 1233.73 211.2C1234.13 208.4 1234.63 205.65 1235.23 202.95C1235.93 200.15 1236.73 197.75 1237.63 195.75C1238.53 193.65 1239.53 192.6 1240.63 192.6C1241.33 192.6 1241.78 192.65 1241.98 192.75C1242.18 192.85 1242.53 192.95 1243.03 193.05C1243.83 194.75 1243.88 196.9 1243.18 199.5C1242.58 202.1 1242.03 204.95 1241.53 208.05C1240.73 212.55 1240.13 216.5 1239.73 219.9C1239.33 223.2 1239.63 227 1240.63 231.3C1242.13 230.9 1243.68 229.65 1245.28 227.55C1246.98 225.35 1248.53 222.9 1249.93 220.2C1251.43 217.4 1252.78 214.7 1253.98 212.1C1255.18 209.5 1256.08 207.55 1256.68 206.25C1257.08 205.55 1257.43 204.7 1257.73 203.7C1258.13 202.7 1258.53 201.75 1258.93 200.85C1259.43 199.95 1259.93 199.2 1260.43 198.6C1261.03 198 1261.68 197.7 1262.38 197.7C1263.38 197.7 1263.83 198.25 1263.73 199.35C1263.73 200.45 1263.48 201.75 1262.98 203.25C1262.58 204.65 1262.03 206.1 1261.33 207.6C1260.63 209.1 1260.08 210.25 1259.68 211.05C1259.08 212.25 1258.13 214.3 1256.83 217.2C1255.53 220.1 1253.98 223 1252.18 225.9C1250.48 228.8 1248.58 231.4 1246.48 233.7C1244.48 235.9 1242.48 237 1240.48 237C1239.08 237 1237.73 236.35 1236.43 235.05C1235.43 234.15 1234.68 233 1234.18 231.6C1233.78 230.1 1233.48 228.55 1233.28 226.95C1233.18 225.25 1233.13 223.6 1233.13 222C1233.23 220.4 1233.28 218.95 1233.28 217.65ZM1272.26 206.85C1273.16 206.35 1274.16 205.75 1275.26 205.05C1276.46 204.35 1277.56 203.6 1278.56 202.8C1279.56 201.9 1280.41 200.95 1281.11 199.95C1281.81 198.85 1282.21 197.7 1282.31 196.5C1281.31 196.7 1280.26 197.2 1279.16 198C1278.06 198.7 1277.06 199.55 1276.16 200.55C1275.26 201.55 1274.46 202.65 1273.76 203.85C1273.06 204.95 1272.56 205.95 1272.26 206.85ZM1265.51 210.45C1265.51 208.55 1266.01 206.55 1267.01 204.45C1268.01 202.25 1269.26 200.25 1270.76 198.45C1272.26 196.55 1273.96 195 1275.86 193.8C1277.76 192.5 1279.61 191.85 1281.41 191.85C1284.71 191.85 1286.41 193.1 1286.51 195.6C1286.71 198.1 1285.66 200.8 1283.36 203.7C1282.16 205.1 1280.36 206.65 1277.96 208.35C1275.56 209.95 1273.21 210.85 1270.91 211.05C1270.91 212.65 1270.96 214.1 1271.06 215.4C1271.16 216.6 1271.86 217.85 1273.16 219.15C1274.46 220.45 1276.11 221.1 1278.11 221.1C1279.41 221.1 1280.76 220.85 1282.16 220.35C1283.56 219.85 1284.91 219.3 1286.21 218.7C1287.51 218 1288.71 217.3 1289.81 216.6C1291.01 215.8 1291.96 215.1 1292.66 214.5C1293.26 214 1293.71 213.6 1294.01 213.3C1294.41 213 1294.86 212.65 1295.36 212.25C1296.86 211.05 1297.91 210.1 1298.51 209.4C1299.21 208.7 1299.71 208.15 1300.01 207.75C1300.41 207.35 1300.81 207.1 1301.21 207C1301.71 206.9 1302.51 206.85 1303.61 206.85C1303.81 207.95 1303.86 208.7 1303.76 209.1C1303.76 209.5 1303.41 210.1 1302.71 210.9C1301.31 212.3 1299.66 213.85 1297.76 215.55C1295.86 217.25 1293.76 218.85 1291.46 220.35C1289.26 221.85 1286.96 223.1 1284.56 224.1C1282.26 225.1 1279.96 225.6 1277.66 225.6C1274.26 225.6 1271.36 224.4 1268.96 222C1267.16 220.2 1266.11 218.35 1265.81 216.45C1265.61 214.55 1265.51 212.55 1265.51 210.45Z" fill="white" fill-opacity="0.05"/>
</svg>
