<svg width="53" height="73" viewBox="0 0 53 73" fill="none" xmlns="http://www.w3.org/2000/svg">
<g clip-path="url(#clip0_1_68)">
<path d="M25.9018 64.0494C22.1922 64.0494 18.4839 64.0494 14.7743 64.0494C14.3821 64.0494 13.9935 64.0445 13.6173 63.9006C12.6816 63.5409 11.8147 62.5923 11.9648 61.1731C12.0779 60.1013 13.0234 59.099 14.1361 58.9796C14.3808 58.9527 14.6292 58.9344 14.8751 58.9344C22.2524 58.932 29.6298 58.932 37.0071 58.9344C37.253 58.9344 37.5002 58.9552 37.7461 58.9771C38.8613 59.0759 40.0773 60.1623 39.9544 61.7022C39.8339 63.2068 38.5182 64.0713 37.4621 64.0494C37.2764 64.0457 37.0907 64.0494 36.9063 64.0494C33.2385 64.0494 29.5708 64.0494 25.9018 64.0494Z" fill="white"/>
<path d="M18.5074 73.0004C18.136 73.0004 17.7696 72.9919 17.4081 72.8724C16.4651 72.5602 15.5663 71.6092 15.6572 70.268C15.7347 69.1243 16.5561 68.1793 17.6909 67.9452C17.9541 67.8904 18.2196 67.8696 18.4889 67.8696C23.1465 67.8721 27.804 67.8696 32.4616 67.8733C32.6866 67.8733 32.9128 67.9001 33.1366 67.9282C34.2543 68.0659 35.249 69.1194 35.2883 70.3411C35.3277 71.5677 34.5014 72.6566 33.2792 72.9419C32.994 73.0077 32.7063 73.0004 32.4186 73.0004C30.0898 73.0016 20.8152 73.0004 18.5074 73.0004Z" fill="white"/>
<path d="M52.9319 24.5264C52.8286 23.1779 52.6577 21.8416 52.3527 20.5259C51.0925 15.083 48.3862 10.4656 44.1922 6.74067C39.3158 2.41098 33.5664 0.205287 27.0313 0.0102008C25.4833 -0.0361321 23.9439 0.095551 22.4106 0.327216C19.6785 0.739335 17.0829 1.56723 14.6152 2.79505C5.98743 7.08817 -0.06199 15.9902 -0.000512245 26.4688C0.0117833 28.6427 0.263842 30.7936 0.815913 32.9005C1.09502 33.9637 1.43315 35.0123 1.83521 36.0365C2.22867 37.04 2.68238 38.0215 3.19633 38.9701C3.70291 39.9065 4.26851 40.81 4.8882 41.6769C5.44642 42.4561 6.06489 43.1803 6.68581 43.9107C7.83791 45.2665 9.57035 46.3041 11.3114 45.247C12.4094 44.5801 13.0033 43.2669 12.8274 42.0086C12.6123 40.4747 11.2044 39.353 10.2884 38.2032C10.1802 38.0666 10.0732 37.9276 9.97119 37.7862C9.37485 36.9571 8.83877 36.0841 8.37522 35.1745C7.4592 33.3772 6.83828 31.4398 6.53704 29.4487C6.28006 27.749 6.25301 26.0188 6.41162 24.3082C6.89976 19.0518 9.22976 14.6758 13.2061 11.2216C17.6203 7.38689 22.8164 5.79816 28.6641 6.38952C34.0115 6.92966 38.4182 9.31215 41.8819 13.3309C45.6529 17.7057 47.1911 22.828 46.5517 28.544C46.1902 31.7714 45.0443 34.9001 43.1901 37.5801C42.713 38.269 42.1745 38.914 41.6015 39.5249C41.0507 40.1126 40.4138 40.6283 39.9146 41.2624C39.0231 42.3939 38.8817 43.8656 39.74 45.0605C40.7605 46.4809 42.7081 46.8321 44.1762 45.892C44.7836 45.5031 45.2877 44.969 45.7537 44.4276C46.7767 43.2376 47.7788 42.0183 48.6456 40.7076C49.2088 39.8553 49.7227 38.9713 50.1863 38.0617C50.2883 37.8618 50.3867 37.6618 50.4838 37.4594C51.797 34.7197 52.5827 31.8312 52.8753 28.8159C53.0142 27.3905 53.045 25.9615 52.9343 24.5276L52.9319 24.5264Z" fill="white"/>
<path d="M23.0359 52.2144C22.9019 52.7095 22.8969 53.2094 23.0039 53.6776L22.3387 51.2366L21.7092 48.9248L21.0108 46.3631L20.4501 44.3061L20.412 44.1659L17.4807 33.4167C17.1758 32.2998 17.5373 31.1586 18.3267 30.4123C18.355 30.3843 18.3857 30.355 18.4177 30.3282C18.473 30.2782 18.5308 30.2319 18.591 30.188C18.6168 30.1685 18.6414 30.1502 18.6685 30.1319C18.7091 30.1027 18.7509 30.0746 18.7939 30.0478C18.8222 30.0295 18.8517 30.0124 18.8812 29.9954C18.9218 29.971 18.9648 29.9478 19.0078 29.9246C19.0804 29.8868 19.1542 29.8515 19.2304 29.8186C19.2685 29.8039 19.3054 29.7881 19.3447 29.7734C19.3829 29.7588 19.421 29.7442 19.4616 29.732C19.5009 29.7174 19.539 29.7052 19.5796 29.6942C19.6189 29.682 19.6583 29.6722 19.6989 29.6613C19.7357 29.6527 19.7739 29.6442 19.812 29.6357C19.8157 29.6344 19.8206 29.6332 19.8243 29.632C19.8636 29.6247 19.903 29.6174 19.9423 29.6101C20.1144 29.5808 20.2841 29.5674 20.4526 29.5674C20.5374 29.5674 20.6223 29.571 20.7059 29.5784L20.7723 29.5857C22.0006 29.7125 23.0801 30.5721 23.422 31.8243L25.9032 40.9263L25.9561 41.1214L25.9954 41.2677L26.0077 41.3116L23.0359 52.2144Z" fill="#CCCCCC"/>
<path d="M19.1355 49.1262L17.9576 53.4461L17.858 53.8095C17.772 54.1252 17.6392 54.4167 17.467 54.6764C17.467 54.6764 17.4666 54.6772 17.4658 54.6788C17.4658 54.6788 17.4596 54.6886 17.456 54.6934C16.7465 55.7628 15.4001 56.3114 14.0845 55.9591C12.4455 55.5189 11.4742 53.8436 11.918 52.2171L17.2801 32.5475L17.3355 32.3451L17.3662 32.2305L17.4264 32.011L17.4769 31.8257C17.4572 31.8976 17.44 31.9696 17.4277 32.0391C17.4105 32.1293 17.3982 32.2159 17.3896 32.3012C17.3797 32.3902 17.3748 32.4768 17.3748 32.5585V32.5609C17.3699 32.8694 17.4105 33.1218 17.4424 33.2705L17.456 33.3254C17.4707 33.3839 17.4805 33.4169 17.4805 33.4169L17.6244 33.9436C17.6281 33.9631 17.6318 33.9838 17.6355 34.0046C17.6355 34.0082 17.6355 34.0106 17.6367 34.0131C18.265 37.6222 19.39 44.8526 19.1355 49.1262Z" fill="white"/>
<path d="M20.45 44.3066L20.1648 45.3539L19.1356 49.1264C19.3914 44.826 18.2504 37.5298 17.6245 33.9438L20.4119 44.1664L20.45 44.3066Z" fill="white"/>
<path d="M34.5358 33.4157L31.5688 44.2966L31.5639 44.3161L29.0126 53.6766L28.9769 53.8059C28.7101 54.7837 27.9933 55.5214 27.108 55.8591C27.0699 55.8725 27.0318 55.886 26.9937 55.8994C26.9937 55.8994 26.9912 55.8994 26.99 55.8994C26.9506 55.9116 26.9125 55.925 26.8732 55.9359C26.8326 55.9469 26.7932 55.9591 26.7527 55.9689C26.7219 55.9774 26.6912 55.9847 26.6592 55.9908C26.5609 56.0128 26.4588 56.0298 26.3568 56.0408C26.3272 56.0445 26.2977 56.0469 26.2682 56.0493C26.2645 56.0493 26.2596 56.0493 26.2547 56.0493C26.2154 56.053 26.1772 56.0554 26.1379 56.0567C26.0518 56.0603 25.9658 56.0603 25.8785 56.0567C25.8391 56.0567 25.801 56.053 25.7616 56.0493C25.758 56.0493 25.7518 56.0493 25.7481 56.0493C25.7186 56.0469 25.6891 56.0445 25.6596 56.0408C25.528 56.0262 25.3952 56.0018 25.2625 55.9689C25.2219 55.9591 25.1825 55.9481 25.142 55.9359C25.1026 55.925 25.0645 55.9116 25.0251 55.8994C25.0251 55.8994 25.0227 55.8994 25.0215 55.8994C24.9821 55.886 24.9452 55.8725 24.9071 55.8591C24.8309 55.8287 24.7546 55.7969 24.6796 55.7616C23.9001 55.3897 23.2816 54.6984 23.0382 53.8046L23.0025 53.6754C22.8968 53.2084 22.9005 52.7085 23.0357 52.2122L26.0076 41.3094L28.5798 31.8745C28.5835 31.8562 28.5896 31.8392 28.5945 31.8221C28.8933 30.7284 29.754 29.9358 30.7844 29.6664C31.0364 29.6005 31.2983 29.5664 31.5627 29.5664C31.8271 29.5664 32.0988 29.6005 32.3681 29.6725C32.5402 29.7188 32.7037 29.7773 32.8599 29.8493C32.9767 29.9041 33.0898 29.9639 33.1968 30.0297C33.2324 30.0529 33.2681 30.0761 33.3025 30.098C33.3714 30.1456 33.439 30.1956 33.5029 30.2468C33.6013 30.3248 33.6923 30.4089 33.7784 30.4967C33.8349 30.5565 33.8915 30.6174 33.9431 30.6808C33.9689 30.7138 33.9948 30.7442 34.0193 30.7784C34.0685 30.843 34.1165 30.9113 34.1607 30.9796C34.1841 31.0137 34.205 31.0491 34.2259 31.0844C34.2382 31.1076 34.2517 31.132 34.2665 31.1551C34.28 31.1807 34.2948 31.2076 34.3071 31.2332C34.3243 31.2649 34.3403 31.2966 34.355 31.3307C34.3735 31.3697 34.3907 31.4075 34.4067 31.4478C34.4558 31.5673 34.4989 31.6904 34.5345 31.8184L34.5579 31.9013C34.6759 32.383 34.6772 32.9012 34.537 33.4133L34.5358 33.4157Z" fill="white"/>
<path d="M37.9254 55.954C37.425 56.0881 36.9197 56.0918 36.4475 55.9857C35.3704 55.7443 34.4605 54.9347 34.1507 53.8032L34.0683 53.4996L32.3027 47.0227L31.7309 44.9268L31.5649 44.3159L31.5699 44.2964L34.4101 33.8825L34.5368 33.4167C34.6524 32.9912 34.672 32.5632 34.6069 32.1547C34.5946 32.0706 34.5774 31.9865 34.5577 31.9048L34.7815 32.729L34.8552 32.9985L34.9561 33.3667L34.961 33.3838L35.0483 33.7045L40.0931 52.2108C40.5358 53.8386 39.5657 55.5126 37.9254 55.954Z" fill="#CCCCCC"/>
<path opacity="0.25" d="M34.8552 32.999L32.3027 47.0232L31.5649 44.3164L31.5699 44.2969L34.5368 33.4172C34.6757 32.9039 34.6757 32.3869 34.5577 31.9053L34.8552 32.999Z" fill="#535354"/>
<path opacity="0.21" d="M34.0683 53.5001L32.3027 47.0232L31.5649 44.3164L31.5699 44.2969L34.4101 33.883L34.5368 33.4172C34.6757 32.9039 34.6757 32.3869 34.5577 31.9053L34.7815 32.7295L34.8552 32.999L34.9561 33.3672C34.3905 37.1775 33.4929 45.0138 34.0683 53.5001Z" fill="#535354"/>
<path opacity="0.11" d="M36.4475 55.9863C35.3704 55.7448 34.4605 54.9352 34.1507 53.8037L34.0683 53.5001L32.3027 47.0233L31.7309 44.9273L31.5649 44.3165L31.5699 44.2969L34.4101 33.883L34.5368 33.4172C34.6524 32.9917 34.672 32.5637 34.6069 32.1553L35.0483 33.705C34.6856 37.5726 33.5937 51.6822 36.4475 55.9863Z" fill="#535354"/>
<path opacity="0.25" d="M23.0355 52.2149C22.9015 52.7099 22.8966 53.2098 23.0036 53.678L22.3384 51.237L26.0074 41.312L23.0355 52.2149Z" fill="#535354"/>
<path opacity="0.21" d="M23.0357 52.2149C22.9017 52.7099 22.8967 53.2098 23.0037 53.678L22.3385 51.237L21.709 48.9252C23.5041 47.8072 25.544 42.6971 26.0087 41.312L23.0369 52.2149H23.0357Z" fill="#535354"/>
<path opacity="0.08" d="M23.0358 52.2148C22.9018 52.7099 22.8969 53.2098 23.0039 53.678L22.3387 51.237L21.7091 48.9252L21.0107 46.3635C23.1194 48.4302 25.5072 42.5556 25.9954 41.2681L26.0077 41.312L23.0358 52.2148Z" fill="#535354"/>
<path opacity="0.25" d="M20.45 44.3066L20.1648 45.354L17.4561 33.3257C17.4708 33.3842 17.4806 33.4171 17.4806 33.4171L20.4119 44.1664L20.45 44.3066Z" fill="#535354"/>
<path opacity="0.21" d="M20.45 44.3066L20.1648 45.3539L19.1356 49.1264C19.3902 44.8528 18.2651 37.6224 17.6368 34.0133C17.6356 34.0109 17.6356 34.0085 17.6356 34.0048C17.6319 33.9841 17.6282 33.9634 17.6245 33.9438L17.6294 33.9634L20.4119 44.1664L20.45 44.3066Z" fill="#535354"/>
<path d="M17.4769 31.8257C17.4572 31.8976 17.44 31.9696 17.4277 32.0391V32.011L17.4769 31.8257Z" fill="#535354"/>
<path opacity="0.14" d="M20.4502 44.3066L20.1649 45.354L19.1358 49.1264L17.9579 53.4464L17.8583 53.8097C17.7722 54.1255 17.6394 54.4169 17.4673 54.6766C19.4764 49.3581 18.1521 37.8346 17.637 34.0134C17.6357 34.0109 17.6357 34.0085 17.6357 34.0048C17.6333 33.9914 17.632 33.9768 17.6296 33.9634L20.4121 44.1664L20.4502 44.3066Z" fill="#535354"/>
</g>
<defs>
<clipPath id="clip0_1_68">
<rect width="53" height="73" fill="white"/>
</clipPath>
</defs>
</svg>
